<svg width="38" height="38" viewBox="0 0 38 38" fill="none" xmlns="http://www.w3.org/2000/svg">
<rect width="38" height="38" rx="4" fill="#262626"/>
<path d="M7 9.19907C7 7.98455 7.98455 7 9.19907 7H17.8009C19.0154 7 20 7.98456 20 9.19907V10.9005C20 11.5077 19.5077 12 18.9005 12H8.09953C7.49228 12 7 11.5077 7 10.9005V9.19907Z" fill="white"/>
<path d="M7 16.0995C7 15.4923 7.49228 15 8.09953 15H28.8009C30.0154 15 31 15.9846 31 17.1991V22.9005C31 23.5077 30.5077 24 29.9005 24H9.19907C7.98456 24 7 23.0154 7 21.8009V16.0995Z" fill="white"/>
<path d="M18 28.0995C18 27.4923 18.4923 27 19.0995 27H29.9005C30.5077 27 31 27.4923 31 28.0995V28.8009C31 30.0154 30.0154 31 28.8009 31H20.1991C18.9846 31 18 30.0154 18 28.8009V28.0995Z" fill="white"/>
</svg>
